<svg width="48" height="48" viewBox="0 0 48 48" fill="none" xmlns="http://www.w3.org/2000/svg">
<path d="M24 8C19.6547 8 19.1098 8.01843 17.4032 8.09627C15.7002 8.17396 14.5371 8.44447 13.5194 8.83993C12.4672 9.24882 11.5749 9.79595 10.6855 10.6854C9.79595 11.5749 9.24882 12.4673 8.83998 13.5194C8.44443 14.5371 8.17401 15.7002 8.09622 17.4032C8.01839 19.1098 8 19.6547 8 24C8 28.3453 8.01839 28.8902 8.09622 30.5968C8.17401 32.2998 8.44443 33.4629 8.83998 34.4806C9.24887 35.5327 9.79599 36.425 10.6855 37.3146C11.575 38.204 12.4672 38.7512 13.5194 39.1601C14.5371 39.5555 15.7002 39.826 17.4032 39.9037C19.1098 39.9816 19.6547 40 24 40C28.3453 40 28.8902 39.9816 30.5968 39.9037C32.2998 39.826 33.4629 39.5555 34.4806 39.1601C35.5327 38.7512 36.425 38.204 37.3146 37.3146C38.204 36.425 38.7512 35.5327 39.1601 34.4806C39.5555 33.4629 39.826 32.2998 39.9037 30.5968C39.9816 28.8902 40 28.3453 40 24C40 19.6547 39.9816 19.1098 39.9037 17.4032C39.826 15.7002 39.5555 14.5371 39.1601 13.5194C38.7512 12.4673 38.204 11.5749 37.3146 10.6854C36.425 9.79595 35.5327 9.24882 34.4806 8.83993C33.4629 8.44447 32.2998 8.17396 30.5968 8.09627C28.8902 8.01843 28.3453 8 24 8ZM24 10.8829C28.2722 10.8829 28.7782 10.8992 30.4654 10.9762C32.0254 11.0473 32.8726 11.3079 33.4363 11.5271C34.1832 11.8173 34.7162 12.164 35.276 12.7239C35.836 13.2838 36.1827 13.8168 36.4729 14.5636C36.692 15.1274 36.9527 15.9747 37.0238 17.5346C37.1008 19.2218 37.1171 19.7278 37.1171 24C37.1171 28.2722 37.1008 28.7782 37.0238 30.4654C36.9527 32.0254 36.692 32.8726 36.4729 33.4363C36.1827 34.1832 35.836 34.7162 35.276 35.276C34.7162 35.836 34.1832 36.1827 33.4364 36.4729C32.8726 36.692 32.0253 36.9527 30.4654 37.0238C28.7785 37.1008 28.2725 37.1171 24 37.1171C19.7275 37.1171 19.2216 37.1008 17.5346 37.0238C15.9746 36.9527 15.1274 36.692 14.5637 36.4729C13.8168 36.1827 13.2838 35.836 12.724 35.276C12.1641 34.7162 11.8173 34.1832 11.5271 33.4364C11.3079 32.8726 11.0473 32.0253 10.9762 30.4654C10.8992 28.7782 10.8829 28.2722 10.8829 24C10.8829 19.7278 10.8992 19.2218 10.9762 17.5346C11.0473 15.9746 11.3079 15.1274 11.5271 14.5637C11.8173 13.8168 12.1641 13.2838 12.7239 12.724C13.2838 12.164 13.8168 11.8173 14.5636 11.5271C15.1274 11.3079 15.9747 11.0473 17.5346 10.9762C19.2218 10.8992 19.7278 10.8829 24 10.8829" fill="#333333"/>
<path d="M23.9999 29.3333C21.0544 29.3333 18.6666 26.9455 18.6666 24C18.6666 21.0544 21.0544 18.6666 23.9999 18.6666C26.9454 18.6666 29.3332 21.0544 29.3332 24C29.3332 26.9455 26.9454 29.3333 23.9999 29.3333ZM23.9999 15.7837C19.4622 15.7837 15.7837 19.4622 15.7837 24C15.7837 28.5376 19.4622 32.2161 23.9999 32.2161C28.5376 32.2161 32.2161 28.5376 32.2161 24C32.2161 19.4622 28.5376 15.7837 23.9999 15.7837V15.7837ZM34.4608 15.4591C34.4608 16.5195 33.6011 17.3791 32.5407 17.3791C31.4804 17.3791 30.6207 16.5195 30.6207 15.4591C30.6207 14.3987 31.4804 13.5391 32.5407 13.5391C33.6011 13.5391 34.4608 14.3987 34.4608 15.4591" fill="#333333"/>
</svg>
