<svg width="48" height="48" viewBox="0 0 48 48" fill="none" xmlns="http://www.w3.org/2000/svg">
<path d="M11.8461 8.02734C9.7207 8.02734 8.00034 9.75079 8 11.8714C8 13.9941 9.72035 15.7172 11.8465 15.7172C13.9667 15.7172 15.6895 13.9941 15.6895 11.8714C15.6895 9.75045 13.9664 8.02734 11.8461 8.02734Z" fill="#333333"/>
<path d="M15.1609 18.6338H8.52881V39.9719H15.1609V18.6338Z" fill="#333333"/>
<path d="M32.0445 18.1035C28.8184 18.1035 26.6551 19.8724 25.7697 21.5497H25.681V18.6341H19.3202H19.3198V39.9719H25.9461V29.416C25.9461 26.6331 26.476 23.9375 29.9263 23.9375C33.3271 23.9375 33.3725 27.1203 33.3725 29.5944V39.9716H39.9998V28.2678C39.9998 22.5229 38.7602 18.1035 32.0445 18.1035Z" fill="#333333"/>
</svg>
